<svg xmlns="http://www.w3.org/2000/svg" style="display:none">
<symbol id="address-card" viewBox="0 0 576 512"><path fill="currentColor" d="M64 32C28.7 32 0 60.7 0 96L0 416c0 35.3 28.7 64 64 64l448 0c35.3 0 64-28.7 64-64l0-320c0-35.3-28.7-64-64-64L64 32zm80 256l64 0c44.2 0 80 35.8 80 80 0 8.8-7.2 16-16 16L80 384c-8.8 0-16-7.2-16-16 0-44.2 35.8-80 80-80zm-24-96a56 56 0 1 1 112 0 56 56 0 1 1 -112 0zm240-48l112 0c13.3 0 24 10.7 24 24s-10.7 24-24 24l-112 0c-13.3 0-24-10.7-24-24s10.7-24 24-24zm0 96l112 0c13.3 0 24 10.7 24 24s-10.7 24-24 24l-112 0c-13.3 0-24-10.7-24-24s10.7-24 24-24z"/></symbol>
<symbol id="baby" viewBox="0 0 384 512"><path fill="currentColor" d="M120 88a72 72 0 1 1 144 0 72 72 0 1 1 -144 0zM7.7 144.5c13-17.9 38-21.8 55.9-8.8L99.8 162c26.8 19.5 59.1 30 92.2 30s65.4-10.5 92.2-30l36.2-26.4c17.9-13 42.9-9 55.9 8.8s9 42.9-8.8 55.9l-36.2 26.4c-13.6 9.9-28.1 18.2-43.3 25l0 36.3-192 0 0-36.3c-15.2-6.7-29.7-15.1-43.3-25L16.5 200.3c-17.9-13-21.8-38-8.8-55.9zM97.5 329.3l60.6 53-26 37.2 24.3 24.3c15.6 15.6 15.6 40.9 0 56.6s-40.9 15.6-56.6 0l-48-48C38 438.6 36.1 417 47.2 401.1l50.2-71.8zm128.5 53l60.6-53 50.2 71.8c11.1 15.9 9.2 37.5-4.5 51.2l-48 48c-15.6 15.6-40.9 15.6-56.6 0s-15.6-40.9 0-56.6l24.3-24.3-26-37.2z"/></symbol>
<symbol id="bars" viewBox="0 0 448 512"><path fill="currentColor" d="M0 96C0 78.3 14.3 64 32 64l384 0c17.7 0 32 14.3 32 32s-14.3 32-32 32L32 128C14.3 128 0 113.7 0 96zM0 256c0-17.7 14.3-32 32-32l384 0c17.7 0 32 14.3 32 32s-14.3 32-32 32L32 288c-17.7 0-32-14.3-32-32zM448 416c0 17.7-14.3 32-32 32L32 448c-17.7 0-32-14.3-32-32s14.3-32 32-32l384 0c17.7 0 32 14.3 32 32z"/></symbol>
<symbol id="close" viewBox="0 0 384 512"><path fill="currentColor" d="M55.1 73.4c-12.5-12.5-32.8-12.5-45.3 0s-12.5 32.8 0 45.3L147.2 256 9.9 393.4c-12.5 12.5-12.5 32.8 0 45.3s32.8 12.5 45.3 0L192.5 301.3 329.9 438.6c12.5 12.5 32.8 12.5 45.3 0s12.5-32.8 0-45.3L237.8 256 375.1 118.6c12.5-12.5 12.5-32.8 0-45.3s-32.8-12.5-45.3 0L192.5 210.7 55.1 73.4z"/></symbol>
<symbol id="envelope" viewBox="0 0 512 512"><path fill="currentColor" d="M48 64c-26.5 0-48 21.5-48 48 0 15.1 7.1 29.3 19.2 38.4l208 156c17.1 12.8 40.5 12.8 57.6 0l208-156c12.1-9.1 19.2-23.3 19.2-38.4 0-26.5-21.5-48-48-48L48 64zM0 196L0 384c0 35.3 28.7 64 64 64l384 0c35.3 0 64-28.7 64-64l0-188-198.4 148.8c-34.1 25.6-81.1 25.6-115.2 0L0 196z"/></symbol>
<symbol id="hand-peace" viewBox="0 0 448 512"><path fill="currentColor" d="M192 0c17.7 0 32 14.3 32 32l0 208-64 0 0-208c0-17.7 14.3-32 32-32zm96 160c17.7 0 32 14.3 32 32l0 64c0 17.7-14.3 32-32 32s-32-14.3-32-32l0-64c0-17.7 14.3-32 32-32zm64 64c0-17.7 14.3-32 32-32s32 14.3 32 32l0 64c0 17.7-14.3 32-32 32s-32-14.3-32-32l0-64zM61.3 51.2L143.9 240 74.1 240 2.7 76.8C-4.4 60.6 3 41.8 19.2 34.7S54.2 35 61.3 51.2zm27 221.3l-.2-.5 95.9 0c22.1 0 40 17.9 40 40s-17.9 40-40 40l-56 0c-8.8 0-16 7.2-16 16s7.2 16 16 16l56 0c39.8 0 72-32.2 72-72l0-.6c9.4 5.4 20.3 8.6 32 8.6 13.2 0 25.4-4 35.6-10.8 8.7 24.9 32.5 42.8 60.4 42.8 11.7 0 22.6-3.1 32-8.6l0 8.6c0 88.4-71.6 160-160 160l-61.7 0c-42.4 0-83.1-16.9-113.1-46.9L69.5 453.5C45.5 429.5 32 396.9 32 363l0-27c0-32.7 24.6-59.7 56.3-63.5z"/></symbol>
<symbol id="home" viewBox="0 0 512 512"><path fill="currentColor" d="M277.8 8.6c-12.3-11.4-31.3-11.4-43.5 0l-224 208c-9.6 9-12.8 22.9-8 35.1S18.8 272 32 272l16 0 0 176c0 35.3 28.7 64 64 64l288 0c35.3 0 64-28.7 64-64l0-176 16 0c13.2 0 25-8.1 29.8-20.3s1.6-26.2-8-35.1l-224-208zM240 320l32 0c26.5 0 48 21.5 48 48l0 96-128 0 0-96c0-26.5 21.5-48 48-48z"/></symbol>
<symbol id="map-marker" viewBox="0 0 384 512"><path fill="currentColor" d="M192 0C86 0 0 84.4 0 188.6 0 307.9 120.2 450.9 170.4 505.4 182.2 518.2 201.8 518.2 213.6 505.4 263.8 450.9 384 307.9 384 188.6 384 84.4 298 0 192 0z"/></symbol>
<symbol id="person-chalkboard" viewBox="0 0 640 512"><path fill="currentColor" d="M192 80a56 56 0 1 0 0-112 56 56 0 1 0 0 112zM176 512l0-160c0-8.8 7.2-16 16-16s16 7.2 16 16l0 160c0 17.7 14.3 32 32 32s32-14.3 32-32l0-336 128 0c17.7 0 32-14.3 32-32s-14.3-32-32-32l-16 0 0-48 192 0 0 192-192 0 0-32-64 0 0 48c0 26.5 21.5 48 48 48l224 0c26.5 0 48-21.5 48-48l0-224c0-26.5-21.5-48-48-48L368 0c-26.5 0-48 21.5-48 48l0 64-122.7 0c-45.6 0-88.5 21.6-115.6 58.2L14.3 260.9c-10.5 14.2-7.6 34.2 6.6 44.8s34.2 7.6 44.8-6.6L112 236.7 112 512c0 17.7 14.3 32 32 32s32-14.3 32-32z"/></symbol>
<symbol id="phone" viewBox="0 0 512 512"><path fill="currentColor" d="M160.2 25C152.3 6.1 131.7-3.9 112.1 1.4l-5.5 1.5c-64.6 17.6-119.8 80.2-103.7 156.4 37.1 175 174.8 312.7 349.8 349.8 76.3 16.2 138.8-39.1 156.4-103.7l1.5-5.5c5.4-19.7-4.7-40.3-23.5-48.1l-97.3-40.5c-16.5-6.9-35.6-2.1-47 11.8l-38.6 47.2C233.9 335.4 177.3 277 144.8 205.3L189 169.3c13.9-11.3 18.6-30.4 11.8-47L160.2 25z"/></symbol>
<symbol id="user-doctor" viewBox="0 0 448 512"><path fill="currentColor" d="M224 8a120 120 0 1 0 0 240 120 120 0 1 0 0-240zm60 312.8c-5.4-.5-11-.8-16.6-.8l-86.9 0c-5.6 0-11.1 .3-16.6 .8l0 67.5c16.5 7.6 28 24.3 28 43.6 0 26.5-21.5 48-48 48s-48-21.5-48-48c0-19.4 11.5-36.1 28-43.6l0-58.4C61 353 16 413.6 16 484.6 16 499.7 28.3 512 43.4 512l361.1 0c15.1 0 27.4-12.3 27.4-27.4 0-71-45-131.5-108-154.6l0 37.4c23.3 8.2 40 30.5 40 56.6l0 32c0 11-9 20-20 20s-20-9-20-20l0-32c0-11-9-20-20-20s-20 9-20 20l0 32c0 11-9 20-20 20s-20-9-20-20l0-32c0-26.1 16.7-48.3 40-56.6l0-46.6z"/></symbol>
<symbol id="user" viewBox="0 0 448 512"><path fill="currentColor" d="M224 248a120 120 0 1 0 0-240 120 120 0 1 0 0 240zm-29.7 56C95.8 304 16 383.8 16 482.3 16 498.7 29.3 512 45.7 512l356.6 0c16.4 0 29.7-13.3 29.7-29.7 0-98.5-79.8-178.3-178.3-178.3l-59.4 0z"/></symbol>
</svg>